<svg width="123" height="98" viewBox="0 0 123 98" fill="none" xmlns="http://www.w3.org/2000/svg">
<path fill-rule="evenodd" clip-rule="evenodd" d="M65.5103 1.97175L121.104 89.2947C122.777 91.9247 124.221 97.3107 121.104 97.3107H1.89729C-1.22071 97.3107 0.221286 91.9247 1.89729 89.2947L57.4913 1.97175C59.1663 -0.65825 63.8343 -0.65625 65.5103 1.97175ZM56.6383 74.1458H66.3203V82.7067H56.6383V74.1458ZM66.3143 68.2168H56.6403C55.6763 56.4608 53.6583 49.0007 53.6583 37.2617C53.6583 32.9307 57.1683 29.4198 61.4993 29.4198C65.8313 29.4198 69.3413 32.9307 69.3413 37.2617C69.3423 48.9958 67.2963 56.4707 66.3143 68.2168Z" fill="white"/>
</svg>
