<svg width="20" height="20" viewBox="0 0 20 20" fill="none" xmlns="http://www.w3.org/2000/svg">
<path d="M9.82601 0.388934H10.0826L8.75861 2.59072C7.20667 2.80786 5.75832 3.49154 4.60722 4.55031C3.45612 5.60909 2.65716 6.99251 2.31717 8.51557C1.97718 10.0386 2.11237 11.6287 2.70466 13.0732C3.29696 14.5177 4.31812 15.7478 5.63159 16.5989L5.04313 18.7339C3.14232 17.6778 1.64706 16.0239 0.791555 14.0311C-0.0639481 12.0384 -0.23137 9.81945 0.315515 7.72185C0.862399 5.62424 2.0927 3.76647 3.81371 2.43951C5.53471 1.11256 7.64922 0.391379 9.82601 0.388934ZM11.4606 8.15297H13.6641C13.7401 8.15297 13.8153 8.16787 13.8855 8.19682C13.9557 8.22577 14.0195 8.2682 14.0733 8.3217C14.127 8.37519 14.1696 8.4387 14.1987 8.50859C14.2278 8.57849 14.2427 8.6534 14.2427 8.72905C14.2437 8.84513 14.2089 8.95872 14.143 9.05452L7.60457 20L6.54371 19.5883L8.60823 12.0846L5.99284 12.1286C5.89054 12.1303 5.78963 12.1048 5.70051 12.0548C5.61139 12.0047 5.53728 11.932 5.48582 11.8439C5.43436 11.7559 5.40741 11.6558 5.40775 11.5539C5.40809 11.4521 5.4357 11.3521 5.48775 11.2644L12.2681 0L13.3372 0.372661L11.459 8.15297H11.4606ZM14.7299 1.69406C16.6063 2.77064 18.0736 4.43353 18.904 6.42486C19.7344 8.41618 19.8817 10.6247 19.3229 12.7078C18.7641 14.7909 17.5306 16.6323 15.8135 17.9463C14.0964 19.2604 11.9918 19.9737 9.82601 19.9756H9.56611L10.8738 17.7738C12.4101 17.5642 13.8469 16.8975 14.996 15.8609C16.1452 14.8244 16.953 13.4665 17.3136 11.9651C17.6743 10.4637 17.5709 8.88888 17.0171 7.44696C16.4633 6.00504 15.4849 4.7633 14.2101 3.88446L14.7397 1.69406H14.7299Z" fill="#0088FF"/>
</svg>
