<svg width="18" height="17" viewBox="0 0 18 17" fill="none" xmlns="http://www.w3.org/2000/svg">
<path fill-rule="evenodd" clip-rule="evenodd" d="M2.73779 10.9441L8.66895 4.90159C8.98242 4.58238 9.02197 4.56896 9.34717 4.90159L15.2622 10.9441V17.0046H10.8677V12.9101C10.8673 12.7769 10.8152 12.6493 10.7227 12.5551C10.6302 12.4609 10.5048 12.4078 10.374 12.4074H7.62891C7.4981 12.4078 7.37276 12.4609 7.28027 12.5551C7.18777 12.6493 7.13564 12.7769 7.13525 12.9101V17.0046H2.74072V10.9441H2.73779ZM8.81396 0.131388L0 8.55904L2.17383 9.72102L8.39941 3.32793C8.93262 2.782 8.93848 2.77007 9.46729 3.30407L15.8262 9.71803L18 8.55606L9.17285 0.117963C9.01465 -0.0311986 8.99121 -0.0505897 8.81396 0.131388Z" fill="white"/>
</svg>
