<svg width="10" height="20" viewBox="0 0 10 20" fill="none" xmlns="http://www.w3.org/2000/svg">
<path fill-rule="evenodd" clip-rule="evenodd" d="M6.03551 7.66517V2.4188C6.03551 1.97937 5.85645 1.57982 5.56842 1.28916C5.2804 0.999271 4.88266 0.81905 4.44605 0.81905C4.00945 0.81905 3.61247 0.999271 3.32368 1.28916C3.03566 1.57982 2.8566 1.97937 2.8566 2.4188V12.5081C1.75556 13.0764 1.00274 14.2306 1.00274 15.5619C1.00274 17.4554 2.52743 18.9908 4.40948 18.9908C6.29153 18.9908 7.81698 17.4554 7.81698 15.5619C7.81698 14.2605 7.09692 13.1286 6.03551 12.5473V7.66517ZM5.10363 13.1378C6.1498 13.4407 6.91557 14.4108 6.91557 15.5619C6.91557 16.9546 5.79396 18.0835 4.40948 18.0835C3.02575 18.0835 1.90338 16.9546 1.90338 15.5619C1.90338 14.4108 2.66916 13.4407 3.71609 13.1378V4.25783C3.71609 3.39047 5.10363 3.42498 5.10363 4.25783V13.1378ZM7.70878 2.79382V2.05146H9.63121C9.83465 2.05146 10 2.21711 10 2.42264C10 2.6274 9.83465 2.79382 9.63121 2.79382H7.70878ZM7.70878 4.82074V4.07838H9.63121C9.83465 4.07838 10 4.24479 10 4.44956C10 4.65432 9.83465 4.82074 9.63121 4.82074H7.70878ZM7.70878 6.84766V6.1053H9.63121C9.83465 6.1053 10 6.27171 10 6.47647C10 6.68124 9.83465 6.84766 9.63121 6.84766H7.70878ZM7.70878 8.87457V8.13221H9.63121C9.83465 8.13221 10 8.29863 10 8.50339C10 8.70816 9.83465 8.87457 9.63121 8.87457H7.70878ZM7.70878 10.9015V10.1591H9.63121C9.83465 10.1591 10 10.3255 10 10.5303C10 10.7358 9.83465 10.9015 9.63121 10.9015H7.70878ZM6.85005 11.8647C8.03718 12.66 8.81896 14.0189 8.81896 15.5619C8.81896 18.013 6.84471 20 4.40948 20C1.97425 20 0 18.013 0 15.5619C0 13.9875 0.814538 12.604 2.04282 11.8164V2.4188C2.04282 1.75313 2.31332 1.14882 2.7484 0.71015C3.18424 0.27225 3.78467 0 4.44605 0C5.10744 0 5.70862 0.27225 6.14371 0.71015C6.57955 1.14882 6.85005 1.75313 6.85005 2.4188V11.8647Z" fill="#0088FF"/>
</svg>
