<svg width="12" height="20" viewBox="0 0 12 20" fill="none" xmlns="http://www.w3.org/2000/svg">
<path fill-rule="evenodd" clip-rule="evenodd" d="M4.53088 4.08203V1.35091H2.72337V4.11784C3.28449 4.02506 3.9746 4.07552 4.53088 4.07552V4.08203ZM6.77214 4.08203C7.34293 4.08203 8.02821 4.02832 8.57965 4.12272V1.35091H6.77214V4.08203ZM9.20366 4.2627C9.82135 4.48301 10.3564 4.89082 10.7354 5.4302C11.1145 5.96957 11.3189 6.6141 11.3208 7.27539V7.74414H0V7.27539C0.00184146 6.61781 0.203935 5.9767 0.578889 5.43896C0.953842 4.90122 1.48352 4.49285 2.09614 4.26921V1.35091H2.04938C1.87273 1.3492 1.70384 1.27739 1.57923 1.15099C1.45462 1.0246 1.38429 0.853774 1.38345 0.675456C1.38388 0.496446 1.45451 0.324891 1.57991 0.198311C1.70531 0.0717317 1.87526 0.000429798 2.0526 0L9.25203 0C9.42924 0.000855891 9.59895 0.0722946 9.72425 0.198782C9.84956 0.32527 9.92033 0.496578 9.92118 0.675456C9.92033 0.854334 9.84956 1.02564 9.72425 1.15213C9.59895 1.27862 9.42924 1.35006 9.25203 1.35091H9.20527V4.2627H9.20366ZM11.3208 8.48307V13.9193H0V8.48307H11.3208ZM11.3208 14.6582V16.3916C11.3202 16.7789 11.2179 17.1591 11.0241 17.4934C10.8303 17.8277 10.5521 18.1041 10.2179 18.2943V19.4108C10.2174 19.5669 10.1558 19.7166 10.0464 19.827C9.93706 19.9374 9.78885 19.9996 9.63417 20H1.68497C1.5303 19.9996 1.38208 19.9374 1.27271 19.827C1.16334 19.7166 1.1017 19.5669 1.10128 19.4108V18.2943C0.767447 18.1037 0.489639 17.8273 0.296176 17.493C0.102713 17.1588 0.000514446 16.7787 0 16.3916L0 14.6582H11.3208Z" fill="#0088FF"/>
</svg>
