<svg width="304" height="304" viewBox="0 0 304 304" fill="none" xmlns="http://www.w3.org/2000/svg">
<rect x="85.7049" width="234.322" height="234.322" rx="20" transform="rotate(21.4542 85.7049 0)" fill="white" fill-opacity="0.01"/>
<g opacity="0.5">
<path d="M125.092 237.159L238.14 124.111H125.092V237.159Z" fill="#0062B5"/>
<path d="M65.8895 67.7791C68.0327 67.7791 69.779 66.0327 69.779 63.8895C69.779 61.7463 68.0327 60 65.8895 60C63.7463 60 62 61.7463 62 63.8895C62 66.046 63.7463 67.7791 65.8895 67.7791ZM62 87.1605C62 85.0173 63.7463 83.271 65.8895 83.271C68.0327 83.271 69.779 85.0173 69.779 87.1605C69.779 89.3038 68.0327 91.0501 65.8895 91.0501C63.7463 91.0501 62 89.317 62 87.1605ZM62 110.432C62 108.288 63.7463 106.542 65.8895 106.542C68.0327 106.542 69.779 108.288 69.779 110.432C69.779 112.575 68.0327 114.321 65.8895 114.321C63.7463 114.334 62 112.588 62 110.432ZM62 133.716C62 131.573 63.7463 129.826 65.8895 129.826C68.0327 129.826 69.779 131.573 69.779 133.716C69.779 135.859 68.0327 137.605 65.8895 137.605C63.7463 137.605 62 135.859 62 133.716ZM62 156.987C62 154.844 63.7463 153.097 65.8895 153.097C68.0327 153.097 69.779 154.844 69.779 156.987C69.779 159.13 68.0327 160.876 65.8895 160.876C63.7463 160.876 62 159.13 62 156.987ZM85.271 63.8895C85.271 61.7463 87.0173 60 89.1605 60C91.3038 60 93.0501 61.7463 93.0501 63.8895C93.0501 66.0327 91.3038 67.7791 89.1605 67.7791C87.0173 67.7791 85.271 66.046 85.271 63.8895ZM85.271 87.1605C85.271 85.0173 87.0173 83.271 89.1605 83.271C91.3038 83.271 93.0501 85.0173 93.0501 87.1605C93.0501 89.3038 91.3038 91.0501 89.1605 91.0501C87.0173 91.0501 85.271 89.317 85.271 87.1605ZM85.271 110.432C85.271 108.288 87.0173 106.542 89.1605 106.542C91.3038 106.542 93.0501 108.288 93.0501 110.432C93.0501 112.575 91.3038 114.321 89.1605 114.321C87.0173 114.334 85.271 112.588 85.271 110.432ZM85.271 133.716C85.271 131.573 87.0173 129.826 89.1605 129.826C91.3038 129.826 93.0501 131.573 93.0501 133.716C93.0501 135.859 91.3038 137.605 89.1605 137.605C87.0173 137.605 85.271 135.859 85.271 133.716ZM85.271 156.987C85.271 154.844 87.0173 153.097 89.1605 153.097C91.3038 153.097 93.0501 154.844 93.0501 156.987C93.0501 159.13 91.3038 160.876 89.1605 160.876C87.0173 160.876 85.271 159.13 85.271 156.987ZM108.555 63.8895C108.555 61.7463 110.302 60 112.445 60C114.588 60 116.334 61.7463 116.334 63.8895C116.334 66.0327 114.588 67.7791 112.445 67.7791C110.288 67.7791 108.555 66.046 108.555 63.8895ZM108.555 87.1605C108.555 85.0173 110.302 83.271 112.445 83.271C114.588 83.271 116.334 85.0173 116.334 87.1605C116.334 89.3038 114.588 91.0501 112.445 91.0501C110.288 91.0501 108.555 89.317 108.555 87.1605ZM108.555 110.432C108.555 108.288 110.302 106.542 112.445 106.542C114.588 106.542 116.334 108.288 116.334 110.432C116.334 112.575 114.588 114.321 112.445 114.321C110.288 114.334 108.555 112.588 108.555 110.432ZM108.555 133.716C108.555 131.573 110.302 129.826 112.445 129.826C114.588 129.826 116.334 131.573 116.334 133.716C116.334 135.859 114.588 137.605 112.445 137.605C110.288 137.605 108.555 135.859 108.555 133.716ZM108.555 156.987C108.555 154.844 110.302 153.097 112.445 153.097C114.588 153.097 116.334 154.844 116.334 156.987C116.334 159.13 114.588 160.876 112.445 160.876C110.288 160.876 108.555 159.13 108.555 156.987ZM131.826 63.8895C131.826 61.7463 133.573 60 135.716 60C137.859 60 139.605 61.7463 139.605 63.8895C139.605 66.0327 137.859 67.7791 135.716 67.7791C133.559 67.7791 131.826 66.046 131.826 63.8895ZM131.826 87.1605C131.826 85.0173 133.573 83.271 135.716 83.271C137.859 83.271 139.605 85.0173 139.605 87.1605C139.605 89.3038 137.859 91.0501 135.716 91.0501C133.559 91.0501 131.826 89.317 131.826 87.1605ZM131.826 110.432C131.826 108.288 133.573 106.542 135.716 106.542C137.859 106.542 139.605 108.288 139.605 110.432C139.605 112.575 137.859 114.321 135.716 114.321C133.559 114.334 131.826 112.588 131.826 110.432ZM131.826 133.716C131.826 131.573 133.573 129.826 135.716 129.826C137.859 129.826 139.605 131.573 139.605 133.716C139.605 135.859 137.859 137.605 135.716 137.605C133.559 137.605 131.826 135.859 131.826 133.716ZM131.826 156.987C131.826 154.844 133.573 153.097 135.716 153.097C137.859 153.097 139.605 154.844 139.605 156.987C139.605 159.13 137.859 160.876 135.716 160.876C133.559 160.876 131.826 159.13 131.826 156.987ZM155.097 63.8895C155.097 61.7463 156.844 60 158.987 60C161.13 60 162.876 61.7463 162.876 63.8895C162.876 66.0327 161.13 67.7791 158.987 67.7791C156.844 67.7791 155.097 66.046 155.097 63.8895ZM155.097 87.1605C155.097 85.0173 156.844 83.271 158.987 83.271C161.13 83.271 162.876 85.0173 162.876 87.1605C162.876 89.3038 161.13 91.0501 158.987 91.0501C156.844 91.0501 155.097 89.317 155.097 87.1605ZM155.097 110.432C155.097 108.288 156.844 106.542 158.987 106.542C161.13 106.542 162.876 108.288 162.876 110.432C162.876 112.575 161.13 114.321 158.987 114.321C156.844 114.321 155.097 112.588 155.097 110.432ZM155.097 133.716C155.097 131.573 156.844 129.826 158.987 129.826C161.13 129.826 162.876 131.573 162.876 133.716C162.876 135.859 161.13 137.605 158.987 137.605C156.844 137.605 155.097 135.859 155.097 133.716ZM155.097 156.987C155.097 154.844 156.844 153.097 158.987 153.097C161.13 153.097 162.876 154.844 162.876 156.987C162.876 159.13 161.13 160.876 158.987 160.876C156.844 160.876 155.097 159.13 155.097 156.987Z" fill="white"/>
</g>
</svg>
