<svg width="128" height="126" viewBox="0 0 128 126" fill="none" xmlns="http://www.w3.org/2000/svg">
<g opacity="0.5">
<path d="M10.9458 4.87884C9.60597 4.87884 8.50635 3.79185 8.50635 2.43942C8.50635 1.09964 9.59333 0 10.9458 0C12.2982 0 13.3852 1.087 13.3852 2.43942C13.3852 3.77921 12.2855 4.87884 10.9458 4.87884Z" fill="white"/>
<path d="M33.8738 4.87884C32.534 4.87884 31.4344 3.79185 31.4344 2.43942C31.4344 1.09964 32.5214 0 33.8738 0C35.2136 0 36.3132 1.087 36.3132 2.43942C36.3006 3.77921 35.2136 4.87884 33.8738 4.87884Z" fill="white"/>
<path d="M56.7892 4.87884C55.4494 4.87884 54.3498 3.79185 54.3498 2.43942C54.3498 1.09964 55.4368 0 56.7892 0C58.129 0 59.2286 1.087 59.2286 2.43942C59.2286 3.77921 58.1416 4.87884 56.7892 4.87884Z" fill="white"/>
<path d="M79.7173 4.87884C78.3775 4.87884 77.2778 3.79185 77.2778 2.43942C77.2778 1.09964 78.3648 0 79.7173 0C81.057 0 82.1567 1.087 82.1567 2.43942C82.1567 3.77921 81.057 4.87884 79.7173 4.87884Z" fill="white"/>
<path d="M102.633 4.87884C101.293 4.87884 100.193 3.79185 100.193 2.43942C100.193 1.09964 101.28 0 102.633 0C103.972 0 105.072 1.087 105.072 2.43942C105.072 3.77921 103.985 4.87884 102.633 4.87884Z" fill="white"/>
<path d="M125.561 4.87884C124.221 4.87884 123.121 3.79185 123.121 2.43942C123.121 1.09964 124.208 0 125.561 0C126.913 0 128 1.087 128 2.43942C128 3.77921 126.9 4.87884 125.561 4.87884Z" fill="white"/>
<path d="M10.9458 25.7846C9.60597 25.7846 8.50635 24.6976 8.50635 23.3452C8.50635 22.0054 9.59333 20.9058 10.9458 20.9058C12.2982 20.9058 13.3852 21.9928 13.3852 23.3452C13.3852 24.685 12.2855 25.7846 10.9458 25.7846Z" fill="white"/>
<path d="M33.8738 25.7846C32.534 25.7846 31.4344 24.6976 31.4344 23.3452C31.4344 22.0054 32.5214 20.9058 33.8738 20.9058C35.2136 20.9058 36.3132 21.9928 36.3132 23.3452C36.3006 24.685 35.2136 25.7846 33.8738 25.7846Z" fill="white"/>
<path d="M56.7892 25.7846C55.4494 25.7846 54.3498 24.6976 54.3498 23.3452C54.3498 22.0054 55.4368 20.9058 56.7892 20.9058C58.129 20.9058 59.2286 21.9928 59.2286 23.3452C59.2286 24.685 58.1416 25.7846 56.7892 25.7846Z" fill="white"/>
<path d="M79.7173 25.7846C78.3775 25.7846 77.2778 24.6976 77.2778 23.3452C77.2778 22.0054 78.3648 20.9058 79.7173 20.9058C81.057 20.9058 82.1567 21.9928 82.1567 23.3452C82.1567 24.685 81.057 25.7846 79.7173 25.7846Z" fill="white"/>
<path d="M102.633 25.7846C101.293 25.7846 100.193 24.6976 100.193 23.3452C100.193 22.0054 101.28 20.9058 102.633 20.9058C103.972 20.9058 105.072 21.9928 105.072 23.3452C105.072 24.685 103.985 25.7846 102.633 25.7846Z" fill="white"/>
<path d="M125.561 25.7846C124.221 25.7846 123.121 24.6976 123.121 23.3452C123.121 22.0054 124.208 20.9058 125.561 20.9058C126.913 20.9058 128 21.9928 128 23.3452C128 24.685 126.9 25.7846 125.561 25.7846Z" fill="white"/>
<path d="M10.9458 46.6777C9.60597 46.6777 8.50635 45.5907 8.50635 44.2382C8.50635 42.8985 9.59333 41.7988 10.9458 41.7988C12.2982 41.7988 13.3852 42.8858 13.3852 44.2382C13.3852 45.5907 12.2855 46.6777 10.9458 46.6777Z" fill="white"/>
<path d="M33.8738 46.6777C32.534 46.6777 31.4344 45.5907 31.4344 44.2382C31.4344 42.8985 32.5214 41.7988 33.8738 41.7988C35.2136 41.7988 36.3132 42.8858 36.3132 44.2382C36.3006 45.5907 35.2136 46.6777 33.8738 46.6777Z" fill="white"/>
<path d="M56.7892 46.6777C55.4494 46.6777 54.3498 45.5907 54.3498 44.2382C54.3498 42.8985 55.4368 41.7988 56.7892 41.7988C58.129 41.7988 59.2286 42.8858 59.2286 44.2382C59.2286 45.5907 58.1416 46.6777 56.7892 46.6777Z" fill="white"/>
<path d="M79.7173 46.6777C78.3775 46.6777 77.2778 45.5907 77.2778 44.2382C77.2778 42.8985 78.3648 41.7988 79.7173 41.7988C81.057 41.7988 82.1567 42.8858 82.1567 44.2382C82.1567 45.5907 81.057 46.6777 79.7173 46.6777Z" fill="white"/>
<path d="M102.633 46.6777C101.293 46.6777 100.193 45.5907 100.193 44.2382C100.193 42.8985 101.28 41.7988 102.633 41.7988C103.972 41.7988 105.072 42.8858 105.072 44.2382C105.072 45.5907 103.985 46.6777 102.633 46.6777Z" fill="white"/>
<path d="M125.561 46.6777C124.221 46.6777 123.121 45.5907 123.121 44.2382C123.121 42.8985 124.208 41.7988 125.561 41.7988C126.913 41.7988 128 42.8858 128 44.2382C128 45.5907 126.9 46.6777 125.561 46.6777Z" fill="white"/>
<path d="M10.9458 67.5832C9.60597 67.5832 8.50635 66.4962 8.50635 65.1438C8.50635 63.804 9.59333 62.7043 10.9458 62.7043C12.2982 62.7043 13.3852 63.7914 13.3852 65.1438C13.3852 66.4836 12.2855 67.5832 10.9458 67.5832Z" fill="white"/>
<path d="M33.8738 67.5832C32.534 67.5832 31.4344 66.4962 31.4344 65.1438C31.4344 63.804 32.5214 62.7043 33.8738 62.7043C35.2136 62.7043 36.3132 63.7914 36.3132 65.1438C36.3006 66.4836 35.2136 67.5832 33.8738 67.5832Z" fill="white"/>
<path d="M56.7892 67.5832C55.4494 67.5832 54.3498 66.4962 54.3498 65.1438C54.3498 63.804 55.4368 62.7043 56.7892 62.7043C58.129 62.7043 59.2286 63.7914 59.2286 65.1438C59.2286 66.4836 58.1416 67.5832 56.7892 67.5832Z" fill="white"/>
<path d="M79.7173 67.5832C78.3775 67.5832 77.2778 66.4962 77.2778 65.1438C77.2778 63.804 78.3648 62.7043 79.7173 62.7043C81.057 62.7043 82.1567 63.7914 82.1567 65.1438C82.1567 66.4836 81.057 67.5832 79.7173 67.5832Z" fill="white"/>
<path d="M102.633 67.5832C101.293 67.5832 100.193 66.4962 100.193 65.1438C100.193 63.804 101.28 62.7043 102.633 62.7043C103.972 62.7043 105.072 63.7914 105.072 65.1438C105.072 66.4836 103.985 67.5832 102.633 67.5832Z" fill="white"/>
<path d="M125.561 67.5832C124.221 67.5832 123.121 66.4962 123.121 65.1438C123.121 63.804 124.208 62.7043 125.561 62.7043C126.913 62.7043 128 63.7914 128 65.1438C128 66.4836 126.9 67.5832 125.561 67.5832Z" fill="white"/>
<path d="M10.9458 88.4889C9.60597 88.4889 8.50635 87.4019 8.50635 86.0495C8.50635 84.7097 9.59333 83.6101 10.9458 83.6101C12.2982 83.6101 13.3852 84.6971 13.3852 86.0495C13.3852 87.3893 12.2855 88.4889 10.9458 88.4889Z" fill="white"/>
<path d="M33.8738 88.4889C32.534 88.4889 31.4344 87.4019 31.4344 86.0495C31.4344 84.7097 32.5214 83.6101 33.8738 83.6101C35.2136 83.6101 36.3132 84.6971 36.3132 86.0495C36.3006 87.3893 35.2136 88.4889 33.8738 88.4889Z" fill="white"/>
<path d="M56.7892 88.4889C55.4494 88.4889 54.3498 87.4019 54.3498 86.0495C54.3498 84.7097 55.4368 83.6101 56.7892 83.6101C58.129 83.6101 59.2286 84.6971 59.2286 86.0495C59.2286 87.3893 58.1416 88.4889 56.7892 88.4889Z" fill="white"/>
<path d="M79.7173 88.4889C78.3775 88.4889 77.2778 87.4019 77.2778 86.0495C77.2778 84.7097 78.3648 83.6101 79.7173 83.6101C81.057 83.6101 82.1567 84.6971 82.1567 86.0495C82.1567 87.3893 81.057 88.4889 79.7173 88.4889Z" fill="white"/>
<path d="M102.633 88.4889C101.293 88.4889 100.193 87.4019 100.193 86.0495C100.193 84.7097 101.28 83.6101 102.633 83.6101C103.972 83.6101 105.072 84.6971 105.072 86.0495C105.072 87.3893 103.985 88.4889 102.633 88.4889Z" fill="white"/>
<path d="M125.561 88.4889C124.221 88.4889 123.121 87.4019 123.121 86.0495C123.121 84.7097 124.208 83.6101 125.561 83.6101C126.913 83.6101 128 84.6971 128 86.0495C128 87.3893 126.9 88.4889 125.561 88.4889Z" fill="white"/>
<path d="M10.9458 109.382C9.60597 109.382 8.50635 108.295 8.50635 106.943C8.50635 105.603 9.59333 104.503 10.9458 104.503C12.2982 104.503 13.3852 105.59 13.3852 106.943C13.3852 108.295 12.2855 109.382 10.9458 109.382Z" fill="white"/>
<path d="M33.8738 109.382C32.534 109.382 31.4344 108.295 31.4344 106.943C31.4344 105.603 32.5214 104.503 33.8738 104.503C35.2136 104.503 36.3132 105.59 36.3132 106.943C36.3006 108.295 35.2136 109.382 33.8738 109.382Z" fill="white"/>
<path d="M56.7892 109.382C55.4494 109.382 54.3498 108.295 54.3498 106.943C54.3498 105.603 55.4368 104.503 56.7892 104.503C58.129 104.503 59.2286 105.59 59.2286 106.943C59.2286 108.295 58.1416 109.382 56.7892 109.382Z" fill="white"/>
<path d="M79.7173 109.382C78.3775 109.382 77.2778 108.295 77.2778 106.943C77.2778 105.603 78.3648 104.503 79.7173 104.503C81.057 104.503 82.1567 105.59 82.1567 106.943C82.1567 108.295 81.057 109.382 79.7173 109.382Z" fill="white"/>
<path d="M102.633 109.382C101.293 109.382 100.193 108.295 100.193 106.943C100.193 105.603 101.28 104.503 102.633 104.503C103.972 104.503 105.072 105.59 105.072 106.943C105.072 108.295 103.985 109.382 102.633 109.382Z" fill="white"/>
<path d="M125.561 109.382C124.221 109.382 123.121 108.295 123.121 106.943C123.121 105.603 124.208 104.503 125.561 104.503C126.913 104.503 128 105.59 128 106.943C128 108.295 126.9 109.382 125.561 109.382Z" fill="white"/>
<path d="M107.499 125.775L0 18.2766H107.499V125.775Z" fill="#0062B5"/>
</g>
</svg>
